<?xml version="1.0" standalone="no"?>
<!DOCTYPE svg PUBLIC "-//W3C//DTD SVG 20010904//EN"
 "http://www.w3.org/TR/2001/REC-SVG-20010904/DTD/svg10.dtd">
<svg version="1.0" xmlns="http://www.w3.org/2000/svg"
 width="960.000000pt" height="960.000000pt" viewBox="0 0 960.000000 960.000000"
 preserveAspectRatio="xMidYMid meet">

<g transform="translate(0.000000,960.000000) scale(0.100000,-0.100000)"
fill="#000000" stroke="none">
<path d="M2539 7300 c-112 -19 -208 -93 -257 -198 l-27 -57 0 -1730 c0 -1688
0 -1731 19 -1769 12 -23 38 -50 65 -68 41 -26 53 -29 108 -26 51 3 69 9 99 34
84 68 78 30 85 537 5 413 7 460 27 549 55 248 149 431 304 588 148 151 344
250 565 286 48 8 93 14 98 14 7 0 11 -228 13 -658 3 -754 7 -792 87 -952 133
-265 409 -439 698 -440 221 0 391 71 547 229 96 98 141 167 182 283 57 161 58
181 57 1002 0 548 -4 760 -12 783 -16 42 -73 102 -114 119 -91 38 -205 -16
-247 -118 -14 -33 -16 -131 -16 -775 0 -800 -1 -806 -56 -915 -38 -75 -105
-141 -177 -174 -55 -26 -73 -29 -162 -29 -87 0 -107 3 -155 26 -116 55 -202
166 -229 297 -7 36 -11 314 -11 871 l0 819 -47 7 c-86 13 -296 20 -403 13
-209 -13 -429 -81 -602 -185 -90 -54 -280 -213 -318 -267 -14 -20 -27 -36 -30
-36 -3 0 -4 349 -2 775 l2 775 293 0 c160 0 540 1 842 1 303 1 1123 1 1823 0
l1272 -1 0 -394 0 -394 102 -74 c57 -40 143 -103 193 -140 49 -38 92 -68 95
-68 3 0 4 264 3 588 -2 650 0 627 -68 728 -39 56 -101 105 -167 132 -40 16
-186 17 -2238 18 -1207 1 -2216 -2 -2241 -6z"/>
<path d="M6178 5850 c-124 -22 -256 -80 -355 -155 -126 -94 -236 -264 -285
-440 -22 -79 -22 -87 -25 -865 l-3 -785 23 -45 c35 -67 92 -103 170 -107 76
-5 126 20 172 85 l30 44 5 781 c4 521 9 792 16 812 42 117 112 198 214 248 60
30 72 32 165 32 89 0 106 -4 158 -29 115 -56 206 -180 227 -311 6 -35 10 -361
10 -791 l0 -731 23 -44 c26 -48 70 -83 128 -101 77 -22 182 33 220 116 18 39
19 84 19 812 l0 772 -25 95 c-77 299 -273 505 -555 584 -94 26 -254 38 -332
23z"/>
<path d="M7583 3984 c-58 -21 -126 -85 -157 -146 -21 -41 -26 -66 -26 -122 0
-84 23 -142 78 -199 144 -150 368 -115 458 70 91 186 -48 414 -251 412 -33 0
-79 -7 -102 -15z"/>
<path d="M2250 2786 l0 -331 26 -55 c37 -80 84 -132 156 -171 l63 -34 2250 0
2250 0 57 29 c69 35 127 93 164 165 26 51 28 64 36 235 4 100 6 251 4 336 l-4
155 -197 0 -196 0 1 -267 1 -268 -2116 0 -2115 0 -2 267 -3 268 -187 1 -188 1
0 -331z"/>
</g>
</svg>
